<?xml version="1.0" standalone="no"?>
<!DOCTYPE svg PUBLIC "-//W3C//DTD SVG 20010904//EN"
 "http://www.w3.org/TR/2001/REC-SVG-20010904/DTD/svg10.dtd">
<svg version="1.0" xmlns="http://www.w3.org/2000/svg"
 width="1024.000000pt" height="1024.000000pt" viewBox="0 0 1024.000000 1024.000000"
 preserveAspectRatio="xMidYMid meet">

<g transform="translate(0.000000,1024.000000) scale(0.100000,-0.100000)"
fill="#000000" stroke="none">
<path d="M4625 9791 c-228 -14 -670 -93 -930 -166 -170 -48 -212 -61 -320 -97
-219 -72 -375 -139 -375 -161 0 -5 12 -6 28 -3 15 4 110 10 212 13 146 4 203
2 271 -11 47 -9 99 -16 115 -16 67 0 271 -62 414 -125 258 -114 478 -340 569
-585 48 -130 61 -206 61 -367 0 -203 -32 -355 -108 -512 -73 -149 -280 -326
-487 -414 -140 -60 -198 -71 -370 -70 -137 0 -171 4 -235 23 -192 58 -343 173
-453 343 -73 113 -76 118 -98 198 -29 105 -25 208 10 292 90 210 229 313 391
291 85 -12 169 -82 220 -184 59 -119 121 -169 226 -186 45 -7 137 8 186 30 31
15 157 101 181 125 7 7 6 43 -7 126 -14 95 -15 119 -5 132 11 13 10 18 -6 29
-10 8 -33 14 -51 14 -37 0 -134 -42 -158 -69 -58 -64 -120 -43 -172 58 -38 74
-69 104 -139 137 -76 34 -184 47 -347 41 -233 -9 -353 -54 -482 -182 -96 -95
-150 -190 -215 -385 -24 -69 -61 -214 -61 -236 0 -30 -60 -140 -105 -190 -52
-60 -71 -135 -62 -244 8 -96 19 -114 65 -105 20 4 50 14 67 23 20 11 55 17
110 17 96 0 128 -18 146 -80 14 -48 -2 -181 -28 -242 -26 -57 -22 -245 7 -349
54 -198 204 -409 406 -575 112 -91 145 -70 74 46 -22 36 -65 112 -94 168 -165
315 -153 288 -161 379 -6 70 -4 97 13 156 22 76 75 166 124 207 34 29 52 28
56 -3 2 -11 15 -28 29 -37 17 -11 23 -23 20 -36 -4 -13 2 -25 17 -34 12 -8 32
-32 43 -52 12 -21 34 -49 48 -63 15 -14 50 -54 78 -90 29 -36 61 -72 72 -79
20 -15 69 -64 93 -95 17 -21 42 -21 42 1 0 9 8 25 17 35 16 17 14 20 -20 52
-24 22 -37 43 -37 59 0 16 -11 35 -30 50 -16 14 -30 33 -30 41 0 9 -16 39 -36
67 -77 110 -1 70 231 -123 268 -222 285 -235 405 -308 204 -124 474 -217 723
-250 101 -13 454 -13 537 -1 36 6 68 11 73 11 15 0 6 -32 -18 -68 -14 -20 -25
-42 -25 -48 0 -6 -22 -34 -49 -62 -27 -27 -61 -67 -77 -88 -59 -78 -113 -133
-149 -151 -16 -9 -34 -22 -38 -30 -7 -11 -12 -11 -22 -3 -18 15 -121 3 -152
-18 -18 -11 -41 -13 -111 -7 -68 5 -101 3 -142 -9 -30 -9 -72 -16 -94 -16 -23
-1 -54 -7 -71 -14 l-30 -13 40 -1 c275 -6 338 -2 440 28 75 22 105 24 105 7 0
-9 -10 -23 -22 -32 -67 -47 -107 -69 -148 -82 -112 -35 -278 -83 -325 -93 -22
-5 -69 -16 -105 -24 -36 -9 -128 -18 -205 -22 -119 -5 -154 -3 -235 14 -81 17
-112 19 -205 12 -60 -4 -112 -7 -115 -5 -3 2 -50 8 -105 15 -55 7 -108 17
-119 22 -10 6 -42 10 -70 10 -28 0 -65 6 -82 13 -17 8 -67 19 -110 24 -103 12
-221 38 -261 56 -17 8 -35 15 -41 15 -10 0 -137 51 -179 72 -12 6 -31 8 -42 5
-12 -3 -33 5 -52 19 -18 13 -38 24 -45 24 -6 0 -28 11 -48 25 -20 14 -49 28
-64 31 -15 4 -34 12 -42 19 -8 7 -28 19 -45 27 -47 24 -147 85 -177 107 -14
12 -31 21 -36 21 -5 0 -16 8 -23 17 -8 9 -41 29 -74 44 -33 15 -78 43 -100 63
-22 20 -48 39 -59 42 -10 3 -37 25 -61 48 -55 54 -227 194 -248 202 -10 3 -20
17 -23 29 -3 13 -39 55 -79 94 -40 38 -76 79 -79 89 -4 10 -17 24 -31 30 -13
6 -31 25 -39 41 -9 16 -25 32 -36 36 -11 3 -20 10 -20 14 0 5 -11 25 -25 45
-14 20 -28 49 -31 64 -4 15 -15 38 -26 51 -10 13 -18 30 -18 37 0 7 -9 15 -20
19 -12 4 -24 21 -30 45 -6 22 -16 45 -23 52 -7 7 -17 22 -21 33 -13 33 -19 -1
-7 -38 7 -19 9 -41 5 -51 -3 -9 1 -28 10 -42 10 -14 14 -33 11 -44 -3 -10 3
-36 13 -57 11 -21 23 -53 27 -71 4 -18 15 -38 26 -45 10 -6 19 -19 19 -28 0
-9 9 -28 20 -42 11 -14 20 -29 20 -35 0 -5 9 -17 21 -28 12 -10 28 -32 36 -49
48 -93 121 -184 266 -328 88 -87 170 -163 183 -167 13 -5 24 -16 24 -25 0 -8
15 -21 34 -29 19 -8 44 -28 57 -45 12 -17 27 -31 33 -31 5 0 39 -20 75 -44 36
-24 76 -47 89 -51 12 -3 22 -10 22 -15 0 -5 20 -19 45 -31 25 -13 53 -31 62
-41 9 -10 23 -18 32 -18 9 0 26 -6 37 -14 29 -21 115 -66 125 -66 4 0 59 -25
122 -55 62 -30 121 -55 130 -55 9 0 18 -4 21 -9 3 -4 34 -18 68 -31 35 -12 68
-26 73 -30 6 -4 33 -11 60 -14 28 -4 61 -16 75 -27 l25 -21 -55 5 c-30 3 -71
12 -90 20 -19 8 -62 21 -95 28 -33 7 -64 16 -70 20 -5 4 -27 10 -47 14 -21 4
-42 13 -49 21 -7 8 -30 14 -59 14 -34 0 -52 5 -65 20 -10 11 -31 20 -47 20
-18 0 -38 9 -51 24 -12 13 -41 29 -64 35 -22 6 -46 18 -53 26 -7 8 -23 15 -37
15 -20 0 -23 4 -18 20 6 17 2 20 -29 20 -35 0 -166 59 -194 87 -7 7 -20 13
-27 13 -7 0 -29 15 -49 33 -19 17 -47 39 -63 48 -152 88 -158 92 -283 214
-120 118 -159 162 -188 218 -17 31 -44 71 -61 88 -17 17 -31 35 -31 41 0 6
-11 25 -24 42 -13 17 -34 56 -46 86 -13 30 -45 99 -71 153 -27 54 -51 115 -55
135 -3 20 -14 53 -24 72 -76 149 -71 129 -73 343 -2 173 -4 197 -18 197 -24 0
-41 -24 -116 -170 -196 -378 -324 -739 -427 -1205 -9 -38 -20 -106 -26 -150
-5 -44 -14 -100 -20 -125 -5 -25 -14 -92 -20 -150 -5 -58 -15 -145 -21 -195
-19 -147 -16 -825 3 -965 9 -63 19 -142 23 -175 12 -115 63 -403 96 -540 52
-214 147 -493 224 -662 8 -17 15 -33 15 -36 0 -17 208 -439 259 -525 17 -29
31 -55 31 -57 0 -2 35 -60 77 -127 131 -210 320 -455 496 -643 140 -150 368
-366 467 -443 466 -362 966 -662 1360 -816 52 -21 106 -42 120 -48 81 -33 397
-133 535 -169 253 -66 385 -92 670 -131 144 -19 203 -22 585 -22 412 0 430 1
600 27 229 35 349 61 575 122 100 27 398 130 520 180 106 43 460 216 582 284
253 141 604 377 803 540 98 80 384 357 496 481 109 120 307 366 372 462 20 30
58 87 85 125 26 39 47 74 47 78 0 5 6 16 14 24 21 25 122 204 187 331 63 124
199 427 199 445 1 5 9 28 20 50 11 22 19 44 20 50 0 5 9 32 19 60 18 45 36
104 76 250 57 203 116 502 135 682 6 51 15 128 22 170 16 106 16 804 -1 938
-6 55 -18 154 -26 220 -48 412 -162 818 -355 1270 -94 221 -224 468 -343 652
-24 37 -63 100 -87 138 -163 260 -451 591 -755 870 -221 202 -482 391 -755
547 -174 99 -470 248 -493 248 -7 0 -17 4 -23 9 -14 13 -246 106 -329 132 -16
5 -39 13 -50 18 -17 8 -89 31 -220 71 -178 54 -499 115 -800 151 -153 19 -242
22 -585 24 -223 2 -459 0 -525 -4z m1020 -382 c5 -5 43 -9 85 -9 78 0 114 -7
190 -35 30 -12 76 -17 137 -17 81 -1 92 -3 96 -19 3 -12 14 -19 29 -19 12 0
36 -7 52 -15 33 -17 56 -13 56 9 0 8 8 13 18 11 9 -1 16 -9 14 -18 -3 -20 39
-42 99 -51 28 -4 65 -20 93 -40 44 -31 51 -33 141 -34 52 0 99 -3 105 -7 5 -3
10 -17 10 -31 0 -26 18 -31 51 -13 11 5 30 9 42 7 21 -4 21 -5 -5 -18 -16 -7
-28 -19 -28 -27 0 -14 36 -10 72 8 24 13 76 11 84 -2 3 -6 22 -17 40 -25 19
-8 34 -18 34 -23 0 -6 12 -11 28 -13 21 -2 27 -8 25 -25 -2 -16 3 -23 15 -24
85 -3 167 -32 236 -84 19 -15 19 -15 -4 -40 l-23 -25 41 0 c35 0 42 -3 42 -20
0 -13 11 -25 33 -33 17 -8 41 -24 51 -36 23 -25 86 -30 86 -6 0 18 26 20 36 3
4 -6 0 -16 -9 -23 -26 -19 -20 -35 16 -50 18 -7 38 -25 45 -39 9 -20 19 -26
42 -26 19 0 30 -5 30 -14 0 -8 11 -17 25 -20 14 -4 30 -17 35 -31 5 -14 21
-27 35 -31 14 -3 25 -13 25 -23 0 -10 12 -21 33 -26 46 -14 40 -36 -16 -56
-26 -10 -55 -23 -63 -30 -13 -10 -17 -10 -25 2 -15 24 -5 44 25 49 16 3 31 11
34 18 6 19 -36 14 -57 -7 -33 -33 -54 -33 -89 -2 -18 17 -32 35 -32 41 0 6 -4
9 -9 6 -5 -4 -17 -3 -26 0 -12 5 -15 14 -10 32 5 22 4 24 -19 18 -18 -4 -31
-1 -46 14 -22 22 -26 40 -10 40 16 0 11 40 -6 47 -8 3 -26 0 -40 -7 -20 -11
-30 -10 -66 5 -24 10 -52 26 -63 36 -11 9 -34 24 -51 32 -18 9 -43 30 -57 47
-14 16 -34 30 -45 30 -21 0 -97 39 -147 76 -16 11 -70 42 -119 68 -50 26 -95
53 -100 61 -6 7 -38 15 -75 17 -44 3 -67 10 -76 21 -7 9 -23 17 -37 17 -14 0
-45 11 -69 24 -25 13 -74 33 -109 46 -36 12 -69 26 -75 31 -5 5 -15 9 -23 9
-7 0 -37 11 -66 24 -66 30 -73 32 -113 22 -21 -5 -41 -2 -60 7 -15 8 -46 18
-68 21 -38 7 -58 15 -151 57 -22 11 -60 19 -84 19 -24 0 -62 9 -84 20 -23 10
-59 23 -81 29 -57 13 -104 30 -147 52 -20 10 -47 19 -60 19 -13 0 -29 4 -36 9
-8 5 29 6 85 3 54 -2 102 -8 108 -13z m1035 -219 c0 -5 -2 -10 -4 -10 -3 0 -8
5 -11 10 -3 6 -1 10 4 10 6 0 11 -4 11 -10z m860 -400 c0 -5 -7 -7 -15 -4 -8
4 -12 10 -9 15 6 11 24 2 24 -11z m-2187 -196 c144 -75 335 -231 491 -403 246
-271 418 -569 546 -951 44 -132 91 -320 105 -420 4 -25 11 -58 16 -75 17 -57
49 -421 49 -561 0 -361 -86 -881 -201 -1216 -77 -225 -184 -414 -495 -878 -20
-30 -48 -72 -62 -92 -22 -34 -180 -249 -199 -273 -5 -5 -20 -26 -33 -45 -25
-35 -39 -53 -95 -119 -17 -20 -48 -58 -70 -86 -22 -27 -43 -51 -47 -53 -4 -2
-31 -31 -59 -65 -65 -78 -388 -421 -575 -611 -11 -12 -47 -51 -80 -87 -32 -36
-95 -105 -140 -155 -88 -97 -284 -337 -284 -348 0 -8 -74 -105 -109 -144 -12
-12 -21 -28 -21 -35 -1 -7 -12 -30 -25 -52 -13 -22 -47 -82 -76 -132 -28 -51
-55 -95 -60 -99 -5 -3 -9 -15 -9 -28 0 -12 -5 -27 -11 -33 -7 -7 -19 -33 -29
-60 -16 -44 -67 -169 -89 -218 -15 -34 -48 -126 -70 -200 -11 -38 -27 -92 -36
-119 -9 -27 -21 -109 -27 -182 -6 -78 -15 -134 -21 -134 -6 0 -30 9 -54 21
-44 21 -57 51 -27 63 27 10 33 7 36 -21 2 -17 9 -28 18 -28 12 0 14 13 11 70
-4 82 -6 88 -30 75 -10 -5 -21 -6 -25 -3 -3 4 -19 7 -35 8 -16 1 -37 9 -46 19
-16 16 -15 19 23 65 23 27 44 61 48 77 4 16 13 38 21 49 7 11 18 38 24 59 6
21 20 51 31 67 22 29 19 59 -6 59 -7 0 -17 -11 -20 -25 -3 -13 -31 -52 -61
-86 -30 -34 -55 -65 -55 -69 0 -5 -16 -17 -35 -29 -37 -22 -45 -45 -19 -55 19
-7 15 -45 -7 -59 -9 -6 -24 -7 -33 -4 -14 6 -14 10 -4 27 15 24 -1 46 -27 36
-13 -4 -15 -13 -11 -32 4 -15 2 -32 -5 -40 -18 -22 -3 -44 31 -44 35 0 40 -15
8 -24 -39 -10 -68 -7 -74 9 -4 8 -10 12 -16 9 -5 -3 0 -15 11 -25 25 -24 26
-35 5 -43 -28 -11 -57 -6 -111 16 -60 25 -66 36 -23 44 51 11 32 44 -25 44
-18 0 -22 -4 -18 -20 4 -17 0 -20 -25 -20 -17 0 -43 10 -59 24 -15 13 -42 27
-60 30 -47 11 -56 27 -48 88 19 138 70 330 108 405 15 29 27 59 27 66 0 8 7
21 17 28 9 8 25 34 36 59 34 76 178 284 210 301 9 5 17 14 17 20 0 6 15 29 33
51 38 49 268 281 347 352 378 336 455 407 548 504 186 194 262 280 366 417 58
77 110 145 114 150 77 98 240 387 330 585 35 77 98 268 108 325 4 22 10 47 15
56 4 8 17 72 28 142 25 155 29 415 7 529 -8 41 -17 111 -21 156 l-8 81 39 58
c21 32 60 87 88 123 172 223 313 478 384 696 62 189 83 319 113 694 27 337
-44 843 -151 1078 -11 23 -20 47 -20 52 0 11 -78 173 -122 255 -42 76 -61 103
-175 247 -51 64 -93 119 -93 122 0 11 31 6 63 -10z m967 -50 c25 -7 99 -27
165 -44 137 -36 205 -61 360 -135 233 -111 386 -239 506 -420 72 -110 98 -162
125 -245 9 -30 23 -71 29 -90 33 -91 36 -458 5 -557 -15 -50 -30 -47 -31 5 0
20 -4 46 -8 57 -7 18 -8 17 -13 -5 -6 -29 -1 -158 8 -211 7 -42 -11 -62 -20
-24 -4 14 -11 23 -16 20 -13 -8 -13 -45 2 -99 9 -35 9 -53 -2 -88 l-14 -43
-15 95 c-18 109 -40 132 -43 48 -1 -29 -1 -71 0 -93 3 -46 -17 -145 -30 -145
-4 0 -8 -7 -8 -16 0 -26 42 33 49 69 4 19 14 33 24 35 23 5 22 -24 -2 -72 -11
-21 -23 -51 -26 -66 -3 -15 -15 -36 -26 -46 -10 -9 -19 -26 -19 -36 0 -39
-113 -227 -137 -228 -17 0 -16 8 2 60 17 49 20 273 4 355 -5 28 -14 88 -19
135 -9 82 -19 125 -74 315 -14 50 -26 99 -26 109 0 11 -7 27 -16 37 -8 9 -23
36 -32 60 -26 64 -145 284 -168 310 -8 8 -14 19 -14 23 0 9 -60 97 -211 306
-110 151 -319 480 -319 500 0 4 -23 35 -50 69 -28 34 -48 67 -44 72 6 10 32 6
104 -17z m1650 -184 c0 -24 -4 -28 -35 -32 -29 -3 -35 -1 -35 14 0 25 36 59
55 52 8 -4 15 -18 15 -34z m60 25 c7 -8 8 -15 2 -15 -5 0 -15 7 -22 15 -7 8
-8 15 -2 15 5 0 15 -7 22 -15z m294 -1515 c126 -163 166 -219 166 -234 0 -8 7
-19 15 -26 8 -7 15 -18 15 -25 0 -6 19 -50 43 -96 l42 -84 -3 -160 c-1 -88 -4
-167 -7 -176 -3 -8 -24 -26 -47 -39 -23 -13 -59 -40 -78 -59 -35 -35 -122
-101 -132 -101 -3 0 -3 21 -1 48 7 70 -14 351 -32 418 -8 32 -15 74 -15 94 0
19 -16 103 -36 185 -20 83 -42 177 -49 210 -15 72 -39 159 -54 198 -6 16 -8
33 -5 38 8 14 71 -54 178 -191z m-486 -497 c70 -222 92 -360 93 -583 0 -141
-3 -173 -19 -215 -12 -32 -20 -78 -21 -130 -1 -93 -8 -131 -28 -162 -8 -12
-16 -39 -17 -60 -3 -48 -34 -151 -48 -159 -5 -3 -14 -2 -20 4 -11 11 -80 -10
-108 -34 -8 -7 -26 -14 -40 -16 -17 -2 -26 -10 -28 -25 -2 -15 -10 -23 -23
-23 -14 0 -19 -7 -19 -25 0 -45 -12 -36 -82 62 -94 132 -139 188 -216 269 -76
80 -91 102 -115 169 -16 43 -26 86 -23 98 6 24 45 73 149 189 36 40 78 90 94
110 15 21 53 70 84 110 53 69 269 402 269 414 0 15 65 104 75 104 7 0 26 -44
43 -97z m-6798 27 c0 -11 -4 -20 -10 -20 -5 0 -10 9 -10 20 0 11 5 20 10 20 6
0 10 -9 10 -20z m-325 -329 c9 -27 29 -75 46 -107 16 -32 29 -66 29 -77 0 -10
15 -36 33 -57 18 -22 39 -52 47 -67 8 -15 19 -35 26 -43 24 -30 76 -134 60
-121 -13 11 -16 9 -22 -13 -5 -21 -1 -32 21 -52 28 -26 29 -47 2 -52 -10 -2
-20 6 -26 20 -5 13 -16 30 -25 37 -18 15 -22 66 -6 76 6 3 10 13 10 21 0 8 -4
14 -10 14 -5 0 -10 -6 -10 -13 0 -7 -9 -20 -20 -30 -27 -23 -27 -67 1 -74 15
-4 19 -11 15 -27 -6 -25 2 -40 27 -49 9 -3 17 -15 17 -26 0 -21 55 -91 71 -91
5 0 9 7 9 15 0 8 7 15 15 15 17 0 20 -25 5 -35 -16 -10 -12 -24 15 -51 27 -27
45 -24 45 6 0 33 28 31 32 -2 4 -24 1 -32 -14 -36 -20 -5 -20 -23 0 -30 7 -2
12 3 12 12 0 16 22 13 48 -7 10 -8 9 -14 -4 -28 -16 -18 -15 -22 23 -67 23
-26 48 -46 56 -46 9 1 17 -10 21 -27 3 -16 33 -70 66 -120 34 -49 68 -108 75
-130 8 -22 28 -57 45 -77 16 -20 30 -42 30 -48 0 -6 14 -32 31 -57 26 -40 29
-50 18 -63 -11 -14 -10 -18 6 -29 87 -59 225 -180 225 -197 0 -15 -72 -40 -99
-35 -131 26 -224 36 -241 27 -35 -19 -79 -10 -194 40 -183 79 -270 136 -387
251 -124 122 -210 277 -253 458 -43 175 -43 283 -5 636 15 141 57 317 79 330
6 3 10 21 10 39 0 64 21 58 45 -13z m1165 -31 c0 -5 -6 -10 -14 -10 -8 0 -18
5 -21 10 -3 6 3 10 14 10 12 0 21 -4 21 -10z m80 -50 c0 -5 -9 -10 -20 -10
-11 0 -20 5 -20 10 0 6 9 10 20 10 11 0 20 -4 20 -10z m6860 -430 c0 -13 -7
-20 -18 -20 -24 0 -32 8 -25 26 8 22 43 17 43 -6z m-7810 -21 c0 -6 -4 -7 -10
-4 -5 3 -10 11 -10 16 0 6 5 7 10 4 6 -3 10 -11 10 -16z m7760 -17 c0 -9 -10
-22 -22 -27 -20 -9 -37 -33 -70 -95 -8 -14 -24 -26 -38 -28 -14 -2 -31 -9 -38
-14 -21 -18 -25 0 -6 24 38 48 149 156 162 157 6 1 12 -7 12 -17z m-7722 -27
c4 -17 -16 -38 -29 -30 -3 3 -4 16 -1 30 5 29 25 29 30 0z m42 -67 c25 -42 25
-45 -4 -45 -26 0 -41 31 -30 61 8 22 12 21 34 -16z m-90 -40 c0 -10 -4 -18 -8
-18 -13 0 -29 43 -24 64 4 18 5 18 18 -5 7 -13 13 -32 14 -41z m925 44 c-3 -3
-11 0 -18 7 -9 10 -8 11 6 5 10 -3 15 -9 12 -12z m1230 -42 c8 -13 -25 -13
-45 0 -12 8 -9 10 12 10 15 0 30 -4 33 -10z m5605 -6 c0 -8 -5 -12 -10 -9 -6
4 -8 11 -5 16 9 14 15 11 15 -7z m-7605 -42 c0 -20 -18 -18 -21 1 -1 10 3 16
9 14 7 -2 12 -9 12 -15z m93 -90 c6 -18 -15 -14 -22 4 -4 10 -1 14 6 12 6 -2
14 -10 16 -16z m7214 -24 c-21 -38 -42 -48 -42 -20 0 12 9 23 20 27 11 3 20
11 20 16 0 5 4 9 10 9 5 0 2 -14 -8 -32z m208 -12 c0 -8 -4 -17 -9 -21 -12 -7
-24 12 -16 25 9 15 25 12 25 -4z m-261 -99 c1 -16 -3 -26 -9 -22 -5 3 -10 25
-9 48 0 33 2 38 9 22 5 -11 9 -33 9 -48z m-7075 27 c9 -24 7 -28 -9 -14 -17
14 -20 30 -6 30 5 0 12 -7 15 -16z m3480 -90 c20 -19 21 -88 2 -104 -8 -6 -23
-33 -33 -58 -23 -62 -95 -181 -127 -211 -14 -14 -26 -32 -26 -41 0 -8 -8 -23
-17 -31 -16 -15 -46 -50 -85 -101 -23 -29 -121 -107 -129 -103 -4 3 -12 -10
-19 -29 -12 -36 -131 -156 -156 -156 -19 0 -18 37 1 48 9 4 17 17 19 29 l4 20
-55 -20 c-31 -12 -58 -28 -60 -37 -2 -9 -21 -22 -41 -30 -20 -7 -84 -44 -142
-83 -58 -39 -126 -79 -152 -90 -27 -11 -48 -23 -48 -27 0 -9 -154 -100 -168
-100 -5 0 -15 -7 -22 -15 -15 -18 -51 -20 -69 -2 -11 10 -12 7 -7 -14 7 -34
-4 -44 -124 -106 -19 -10 -55 -33 -79 -51 -24 -17 -50 -32 -56 -32 -7 0 -18
-7 -25 -15 -7 -8 -27 -17 -46 -21 -19 -3 -37 -10 -40 -15 -11 -18 -187 -104
-182 -89 6 18 193 160 211 160 9 0 25 9 34 20 10 11 27 20 38 20 22 0 65 49
65 74 0 9 12 16 33 18 26 2 33 8 35 29 3 22 10 28 38 34 19 3 38 13 41 21 3 8
33 33 67 56 33 22 77 56 97 75 20 19 49 37 65 42 17 4 31 16 34 28 3 12 44 55
92 97 47 41 89 80 93 86 3 6 22 17 41 25 32 13 58 50 47 68 -2 4 -15 7 -28 7
-13 0 -27 5 -30 10 -13 21 -42 9 -71 -30 -16 -22 -35 -40 -42 -40 -9 0 -11 -7
-7 -20 5 -17 2 -20 -20 -20 -14 0 -24 -3 -22 -7 3 -5 1 -18 -4 -31 -8 -20 -15
-23 -51 -21 -42 3 -43 3 -40 -24 4 -32 -23 -38 -33 -8 -8 25 -29 18 -69 -22
-16 -16 -47 -40 -67 -53 -21 -13 -43 -33 -49 -44 -6 -12 -21 -20 -35 -20 -14
0 -39 -13 -57 -30 -17 -16 -37 -30 -45 -30 -19 0 -40 -47 -26 -61 15 -15 42 0
49 27 5 19 13 24 36 24 22 0 29 -4 26 -16 -3 -19 -8 -22 -88 -57 -66 -30 -119
-47 -146 -47 -10 0 -30 -16 -44 -34 -25 -34 -71 -66 -96 -66 -7 0 -23 -13 -35
-30 -13 -17 -43 -37 -68 -47 -25 -9 -53 -24 -63 -32 -9 -9 -40 -29 -68 -46
-29 -16 -66 -41 -84 -55 -35 -28 -120 -85 -181 -120 -22 -13 -53 -34 -68 -47
-16 -13 -36 -23 -45 -23 -10 0 -40 -18 -67 -40 -28 -21 -67 -53 -89 -70 -21
-16 -46 -30 -56 -30 -10 0 -29 -12 -42 -27 -13 -16 -36 -34 -51 -42 -15 -8
-45 -30 -67 -48 -21 -18 -43 -33 -48 -33 -6 0 -23 -11 -39 -24 -15 -13 -45
-31 -66 -39 -20 -9 -40 -23 -43 -32 -3 -8 -12 -15 -18 -15 -24 0 -127 -97
-151 -142 -17 -32 -54 -46 -66 -27 -5 8 -9 16 -9 19 0 13 108 118 128 124 12
4 22 12 22 17 0 5 7 9 15 9 9 0 20 11 25 25 11 29 51 68 93 90 15 9 27 22 27
30 0 12 77 76 174 145 12 8 29 22 39 31 10 9 38 22 63 29 24 7 54 22 66 34 13
12 35 27 51 34 15 6 27 16 27 21 0 5 29 23 65 39 35 17 86 46 112 64 43 29
120 73 223 125 19 10 40 22 45 26 6 5 25 17 43 27 22 14 32 27 32 43 0 27 19
47 73 74 21 10 44 30 50 43 7 14 27 28 52 35 35 10 40 15 38 39 -2 27 -4 25
165 184 25 23 42 45 38 49 -4 5 -12 0 -17 -10 -6 -9 -19 -17 -30 -17 -12 0
-76 -34 -143 -74 -67 -41 -134 -80 -149 -85 -16 -6 -45 -24 -65 -40 -20 -16
-65 -43 -98 -60 -34 -17 -67 -38 -74 -46 -7 -8 -20 -15 -30 -15 -9 0 -30 -10
-45 -22 -34 -27 -102 -68 -170 -103 -27 -14 -79 -43 -114 -65 -34 -22 -65 -40
-67 -40 -2 0 -25 -15 -51 -34 -27 -18 -59 -37 -73 -41 -14 -4 -32 -15 -40 -25
-8 -10 -35 -29 -60 -43 -134 -72 -168 -94 -235 -152 -16 -14 -61 -50 -100 -80
-38 -30 -86 -68 -107 -85 -20 -16 -48 -35 -62 -41 -14 -7 -32 -22 -41 -35 -8
-13 -30 -30 -49 -39 -19 -9 -46 -31 -60 -49 -13 -18 -56 -65 -95 -104 -39 -39
-80 -89 -92 -112 -38 -73 -53 -66 -111 48 -17 34 -35 65 -39 67 -4 3 -11 20
-15 38 -3 17 -13 41 -20 52 -21 29 -18 101 5 122 10 10 30 39 45 64 26 46 352
377 433 441 187 146 281 216 347 255 33 20 75 46 91 58 33 24 96 59 135 75 14
6 52 25 85 43 89 49 216 117 250 134 17 8 37 19 45 24 8 5 44 24 80 41 36 17
81 41 100 53 19 12 46 26 60 30 14 4 57 22 95 40 39 18 99 45 135 60 36 15 69
31 74 36 6 5 19 9 31 9 11 0 30 6 41 14 25 18 254 106 274 106 9 0 20 4 26 10
9 9 179 69 294 104 25 8 59 19 75 25 17 6 92 31 167 56 75 24 147 49 160 54
13 4 57 18 98 31 41 12 89 28 105 35 17 6 64 20 105 30 82 19 192 56 255 85
110 51 181 63 209 34z m2958 -84 c-2 -24 -19 -50 -31 -50 -3 0 -12 4 -20 9
-12 7 -10 15 10 39 27 35 45 36 41 2z m539 -27 c-9 -15 -10 -13 -11 13 0 17 3
34 8 38 11 12 14 -32 3 -51z m-1525 -25 c22 -24 64 -72 93 -108 29 -36 68 -83
86 -105 35 -42 105 -141 105 -149 0 -3 17 -31 39 -63 64 -97 231 -420 231
-448 0 -8 16 -48 35 -89 19 -41 35 -88 35 -103 0 -26 39 -135 54 -150 3 -3 6
-32 6 -63 0 -44 4 -61 20 -75 16 -14 20 -31 20 -80 0 -47 -4 -64 -15 -69 -10
-4 -17 3 -21 22 -3 15 -7 30 -7 35 -4 18 -47 -26 -47 -48 0 -19 -4 -23 -22
-20 -34 7 -42 21 -39 73 2 43 -2 53 -33 88 -30 34 -36 37 -42 21 -4 -10 -4
-69 -1 -130 5 -116 -5 -336 -24 -492 -6 -49 -14 -129 -19 -178 -6 -59 -15 -98
-29 -121 -15 -24 -21 -50 -21 -95 0 -34 -5 -72 -12 -84 -11 -21 -11 -21 -19
-2 -4 11 -5 50 -2 86 4 51 2 69 -10 81 -20 19 -36 128 -24 159 11 29 3 137
-11 151 -16 16 -32 0 -32 -33 0 -41 -16 -36 -25 9 l-7 37 -13 -37 c-14 -43
-40 -149 -55 -228 -11 -59 -22 -109 -47 -205 -8 -33 -19 -82 -25 -110 -6 -27
-16 -68 -24 -90 -7 -22 -16 -58 -19 -80 -9 -59 -60 -257 -86 -330 -6 -16 -17
-55 -23 -86 -24 -104 -46 -104 -46 1 0 52 -5 75 -17 90 -23 27 -51 25 -62 -3
-5 -12 -21 -40 -37 -62 -16 -23 -30 -61 -35 -90 -8 -58 -38 -127 -58 -133 -11
-4 -13 8 -7 67 4 41 3 71 -2 71 -5 0 -14 10 -20 23 -9 19 -11 16 -11 -26 -1
-53 -23 -63 -29 -14 -4 35 -29 35 -43 0 -6 -16 -15 -35 -20 -43 -14 -26 -46
-94 -53 -113 -3 -9 -16 -21 -28 -26 -22 -8 -88 -98 -88 -118 0 -5 -22 -38 -50
-72 -27 -34 -50 -68 -50 -75 0 -7 -10 -21 -21 -32 -12 -10 -31 -39 -42 -64
-11 -25 -27 -54 -37 -65 -10 -11 -24 -32 -31 -46 -8 -15 -24 -44 -37 -65 -71
-122 -94 -163 -114 -204 -11 -25 -31 -58 -42 -73 -12 -16 -39 -61 -61 -101
-22 -40 -55 -96 -74 -124 -37 -56 -30 -54 -181 -70 -119 -13 -121 -11 -90 115
12 54 26 105 31 113 4 8 19 51 34 95 28 84 36 103 93 225 59 130 90 188 125
238 19 26 38 58 41 70 15 46 179 250 320 397 42 44 102 112 133 150 31 39 62
75 68 80 5 6 43 54 84 108 40 53 77 100 82 103 11 7 33 41 140 216 129 212
169 328 211 608 21 147 28 424 10 442 -12 12 -15 4 -37 -106 -8 -43 -27 -121
-41 -175 -14 -53 -30 -114 -35 -136 -6 -22 -18 -63 -29 -91 -10 -28 -16 -60
-14 -71 3 -11 -1 -26 -9 -34 -8 -8 -17 -31 -21 -51 -3 -20 -13 -41 -21 -48
-13 -10 -15 -8 -15 14 0 43 -15 30 -44 -40 -15 -37 -47 -91 -71 -121 -25 -30
-45 -63 -45 -74 0 -10 -13 -28 -30 -41 -19 -14 -30 -31 -30 -46 0 -14 -8 -32
-18 -41 -11 -9 -25 -27 -32 -41 -7 -14 -21 -31 -32 -38 -10 -7 -18 -19 -18
-25 0 -7 -10 -17 -22 -22 -13 -6 -25 -21 -27 -35 -1 -14 -8 -28 -15 -32 -8 -6
-8 -8 1 -8 6 0 15 5 18 10 3 6 16 10 27 10 21 0 21 0 -2 -25 -13 -14 -28 -25
-34 -25 -6 0 -24 -8 -41 -17 -16 -9 -63 -33 -103 -54 -40 -20 -78 -41 -85 -47
-6 -5 -42 -17 -79 -27 -126 -33 -234 -6 -300 76 -18 23 -44 52 -56 65 -13 13
-36 60 -51 105 -17 52 -36 88 -49 97 -19 13 -24 11 -55 -20 -19 -18 -48 -45
-65 -60 -17 -15 -41 -46 -52 -68 -12 -23 -27 -43 -35 -46 -7 -3 -19 -20 -26
-37 -7 -18 -25 -42 -41 -55 -15 -13 -28 -33 -28 -44 0 -12 -22 -45 -50 -74
-27 -29 -50 -59 -50 -66 0 -8 -17 -44 -37 -82 -56 -101 -58 -104 -77 -125 -10
-11 -27 -48 -39 -83 -19 -55 -25 -63 -47 -63 -21 0 -26 -6 -30 -34 -9 -58 -30
-50 -30 11 0 60 11 84 33 75 22 -8 27 13 11 44 -12 24 -11 30 5 50 24 32 56
95 82 164 21 56 32 67 43 40 3 -8 10 -15 16 -15 13 0 13 37 -1 46 -6 3 -16 19
-23 35 -6 15 -16 25 -22 21 -13 -8 -92 -147 -144 -252 -21 -41 -47 -83 -58
-93 -11 -10 -26 -33 -33 -50 -7 -18 -23 -48 -36 -67 -12 -19 -29 -55 -38 -79
-8 -24 -28 -69 -43 -100 -29 -58 -58 -134 -86 -233 -24 -83 -41 -89 -57 -21
-6 29 -4 50 11 91 11 29 20 67 20 85 0 18 7 42 15 53 8 10 15 35 15 54 0 20 6
45 14 56 8 11 22 41 31 65 15 41 48 121 80 194 7 17 15 42 18 57 4 24 2 26
-14 17 -22 -11 -59 -79 -59 -107 0 -11 -11 -36 -25 -56 -14 -20 -25 -43 -25
-50 0 -7 -15 -33 -34 -57 -18 -25 -37 -60 -41 -79 -10 -47 -57 -158 -88 -207
-14 -22 -27 -53 -29 -68 -5 -44 -28 -44 -28 -1 0 23 -5 39 -15 42 -16 7 -21
49 -6 58 5 4 12 25 16 49 11 78 28 142 41 162 8 11 14 34 14 52 0 17 4 34 9
38 5 3 15 22 21 41 12 37 62 146 80 174 5 8 23 44 40 80 18 36 40 74 49 85 10
11 21 28 24 38 9 24 75 123 101 153 12 12 41 48 66 80 25 32 56 69 70 83 14
14 40 44 58 66 46 55 451 462 739 742 235 230 329 331 451 487 416 535 609
907 698 1346 21 105 23 110 43 110 9 0 35 -19 57 -42z m944 -32 c0 -8 -4 -18
-10 -21 -5 -3 -10 3 -10 14 0 12 5 21 10 21 6 0 10 -6 10 -14z m564 -80 c-6
-19 -7 -19 -20 -1 -15 20 -18 53 -8 80 9 24 36 -53 28 -79z m-49 -92 c-3 -19
-10 -32 -16 -29 -10 7 -12 55 -3 80 12 30 27 -11 19 -51z m-550 -45 l-8 -24
-8 24 c-10 27 -2 48 13 33 6 -6 7 -20 3 -33z m518 -92 c-3 -15 -8 -27 -12 -27
-9 0 -11 38 -4 70 5 24 6 24 13 4 4 -11 6 -32 3 -47z m-4023 -385 c0 -14 -23
-32 -42 -32 -21 0 -23 11 -6 28 13 13 48 16 48 4z m-590 -12 c0 -5 -5 -10 -11
-10 -5 0 -7 5 -4 10 3 6 8 10 11 10 2 0 4 -4 4 -10z m-773 -697 c-9 -9 -19
-14 -23 -11 -10 10 6 28 24 28 15 0 15 -1 -1 -17z m5713 -3 c-14 -11 -29 -20
-35 -20 -5 0 1 9 15 20 14 11 30 20 35 20 6 0 -1 -9 -15 -20z m96 -60 c-11
-39 -39 -69 -63 -70 -24 0 -13 24 29 67 23 24 43 43 44 43 1 0 -3 -18 -10 -40z
m-212 -57 c-5 -5 -12 -12 -16 -18 -4 -6 -8 -2 -8 8 0 9 7 17 17 17 9 0 12 -3
7 -7z m106 -66 c0 -7 -11 -29 -25 -49 -14 -20 -25 -42 -25 -47 0 -17 -151
-181 -161 -175 -15 9 -10 78 9 105 41 61 100 123 142 150 50 32 60 35 60 16z
m-140 -346 c0 -5 -7 -14 -15 -21 -12 -10 -15 -10 -15 2 0 8 3 18 7 21 9 10 23
9 23 -2z m-6820 -149 c0 -9 -9 -23 -20 -30 -12 -7 -25 -24 -30 -37 -7 -18 -17
-25 -36 -25 -23 0 -25 -3 -19 -29 5 -23 2 -32 -12 -39 -10 -5 -23 -8 -29 -5
-6 2 -16 -14 -23 -37 -6 -22 -21 -44 -31 -50 -11 -6 -20 -16 -20 -23 0 -23
-25 -67 -37 -67 -18 0 -45 46 -41 67 3 14 12 17 36 15 29 -2 32 0 32 27 0 32
22 61 46 61 10 0 14 12 14 37 0 29 8 45 37 75 20 21 43 38 51 38 8 0 25 9 39
20 32 25 43 25 43 2z m4950 -158 c0 -37 -23 -104 -36 -104 -19 0 -18 30 2 80
16 40 34 53 34 24z m-50 -180 c0 -8 -4 -14 -10 -14 -5 0 -10 9 -10 21 0 11 5
17 10 14 6 -3 10 -13 10 -21z m-33 -69 c5 -16 -14 -38 -26 -31 -18 12 -13 48
6 44 9 -2 18 -7 20 -13z m-37 -64 c0 -10 -7 -24 -15 -31 -12 -10 -16 -9 -21 4
-3 9 -4 23 0 31 8 21 36 19 36 -4z m-90 -99 c0 -13 -12 -22 -22 -16 -10 6 -1
24 13 24 5 0 9 -4 9 -8z m-63 -45 c-7 -21 -32 -13 -35 11 -3 21 -1 22 18 12
12 -6 19 -17 17 -23z m-489 -648 c-2 -6 -8 -10 -13 -10 -5 0 -11 4 -13 10 -2
6 4 11 13 11 9 0 15 -5 13 -11z m710 -31 c-2 -13 -7 -23 -13 -23 -5 0 -11 10
-13 23 -2 15 2 22 13 22 11 0 15 -7 13 -22z m-760 -11 c2 -12 -3 -17 -17 -17
-12 0 -21 6 -21 13 0 31 32 34 38 4z m-54 -15 c3 -5 3 -25 0 -44 -5 -30 -9
-34 -30 -30 -23 4 -29 -4 -25 -35 1 -6 -9 -13 -21 -15 -18 -2 -22 -8 -20 -30
2 -22 -2 -28 -16 -28 -10 0 -43 -22 -73 -50 -30 -27 -60 -50 -66 -50 -19 0
-16 37 3 44 13 5 16 16 12 57 -5 45 -3 52 16 59 12 4 32 20 46 35 14 15 41 35
61 45 19 10 41 26 48 34 14 17 56 22 65 8z m-926 -132 c-10 -30 -28 -50 -28
-31 0 20 20 61 29 61 6 0 6 -11 -1 -30z m-1268 -535 c-18 -19 -29 -22 -59 -18
-38 6 -64 21 -56 32 2 4 34 8 70 8 l66 1 -21 -23z m5 -25 c3 -5 1 -10 -4 -10
-6 0 -11 5 -11 10 0 6 2 10 4 10 3 0 8 -4 11 -10z"/>
<path d="M6930 9061 c0 -12 29 -23 41 -15 18 10 9 24 -16 24 -14 0 -25 -4 -25
-9z"/>
<path d="M7156 8944 c-11 -29 -6 -34 19 -18 14 9 25 20 25 25 0 16 -38 10 -44
-7z"/>
<path d="M7262 8888 c2 -18 11 -24 36 -26 36 -4 41 7 14 31 -28 25 -54 22 -50
-5z"/>
<path d="M3861 1794 c0 -11 3 -14 6 -6 3 7 2 16 -1 19 -3 4 -6 -2 -5 -13z"/>
<path d="M3651 1661 c-12 -12 -28 -21 -36 -21 -22 0 -89 -33 -102 -51 -7 -9
-25 -19 -40 -22 -34 -8 -101 -68 -132 -120 -19 -31 -51 -59 -71 -62 -3 0 -14
-6 -25 -12 -16 -9 -20 -21 -19 -57 0 -26 3 -49 6 -51 13 -13 60 18 83 55 14
22 40 46 58 53 17 8 55 42 82 75 28 34 55 61 62 61 10 1 76 63 146 138 27 29
15 41 -12 14z"/>
<path d="M3791 1524 c0 -11 3 -14 6 -6 3 7 2 16 -1 19 -3 4 -6 -2 -5 -13z"/>
<path d="M3752 1460 c0 -14 2 -19 5 -12 2 6 2 18 0 25 -3 6 -5 1 -5 -13z"/>
<path d="M3140 1260 c-11 -11 -20 -31 -20 -44 0 -14 -5 -28 -12 -32 -7 -5 -8
-3 -3 5 5 9 1 9 -14 -1 -12 -7 -24 -22 -27 -33 -4 -11 -10 -22 -14 -25 -4 -3
-21 -27 -38 -53 -34 -55 -33 -80 4 -71 15 4 24 2 24 -5 0 -6 7 -11 16 -11 12
0 14 5 8 18 -12 27 -17 92 -7 92 5 0 15 -6 22 -12 14 -14 27 1 46 56 10 27 12
28 28 11 21 -20 18 -23 47 36 22 45 22 47 4 68 -23 26 -38 27 -64 1z"/>
<path d="M7371 7004 c0 -11 3 -14 6 -6 3 7 2 16 -1 19 -3 4 -6 -2 -5 -13z"/>
<path d="M8427 6315 c-4 -22 -7 -65 -7 -96 0 -62 -16 -118 -38 -135 -16 -12
-9 -34 11 -34 7 0 24 13 39 28 24 25 28 38 33 113 5 69 3 91 -13 124 l-19 40
-6 -40z"/>
<path d="M8382 5988 c-14 -14 -16 -28 -2 -28 5 0 14 9 20 20 12 22 1 27 -18 8z"/>
<path d="M7800 5422 c0 -45 25 -76 41 -51 5 8 8 30 7 49 -2 28 -8 36 -25 38
-21 3 -23 -1 -23 -36z"/>
<path d="M7761 5343 c-5 -10 -14 -37 -20 -60 -7 -24 -16 -43 -21 -43 -6 0 -10
-13 -10 -30 0 -16 -4 -30 -10 -30 -5 0 -10 5 -10 10 0 6 -7 10 -15 10 -8 0
-15 -9 -15 -19 0 -10 7 -21 15 -25 8 -3 15 -15 15 -26 0 -22 15 -27 26 -9 3 6
15 8 26 6 14 -4 22 1 28 19 5 13 16 24 25 24 8 0 15 5 15 10 0 6 -9 10 -20 10
-11 0 -20 5 -20 10 0 6 9 27 20 47 24 45 25 76 4 97 -19 20 -21 20 -33 -1z"/>
<path d="M7606 5135 c-7 -20 3 -45 19 -45 8 0 21 -7 29 -16 20 -20 20 -10 -1
38 -17 39 -37 49 -47 23z"/>
<path d="M712 5950 c2 -14 7 -23 12 -22 5 2 13 -2 17 -10 5 -7 9 -8 9 -3 0 6
-10 21 -21 35 l-20 25 3 -25z"/>
<path d="M780 5770 c0 -13 5 -20 13 -17 6 2 12 10 12 17 0 7 -6 15 -12 18 -8
2 -13 -5 -13 -18z"/>
<path d="M820 5685 c-6 -14 -10 -38 -10 -52 l0 -26 20 23 c21 25 27 65 10 75
-6 3 -15 -6 -20 -20z"/>
<path d="M4556 4614 c-9 -24 -2 -26 12 -4 7 11 8 20 3 20 -5 0 -12 -7 -15 -16z"/>
<path d="M4037 4541 c-6 -23 0 -31 23 -31 26 0 42 24 28 38 -18 18 -45 14 -51
-7z"/>
<path d="M3993 4489 c-29 -11 -31 -49 -3 -49 13 0 22 9 26 25 8 32 5 35 -23
24z"/>
<path d="M4350 4427 c0 -8 6 -14 14 -14 8 0 12 6 9 14 -3 7 -9 13 -14 13 -5 0
-9 -6 -9 -13z"/>
<path d="M1074 2919 c-9 -15 12 -33 30 -26 9 4 16 13 16 22 0 17 -35 21 -46 4z"/>
<path d="M7414 3695 c-3 -8 1 -23 9 -35 l14 -21 6 22 c10 38 -16 69 -29 34z"/>
<path d="M6537 2814 c-11 -11 -8 -44 3 -44 15 0 24 30 13 41 -5 5 -12 6 -16 3z"/>
<path d="M5057 2213 c-11 -10 -8 -43 3 -43 6 0 10 11 10 25 0 26 -2 29 -13 18z"/>
<path d="M6546 2014 c-10 -25 -7 -34 9 -34 8 0 15 -9 15 -20 0 -11 7 -20 15
-20 8 0 15 4 15 9 0 5 -7 14 -15 21 -8 7 -15 23 -15 36 0 27 -15 32 -24 8z"/>
<path d="M4692 1958 c-16 -16 -15 -28 3 -28 8 0 15 9 15 20 0 23 -2 24 -18 8z"/>
<path d="M6717 1963 c-11 -10 -8 -43 3 -43 6 0 10 11 10 25 0 26 -2 29 -13 18z"/>
<path d="M6515 1945 c-4 -11 -10 -27 -14 -35 -17 -31 -22 -78 -11 -85 30 -18
63 65 44 110 -11 27 -13 28 -19 10z"/>
<path d="M4640 1867 c-31 -38 -60 -102 -60 -130 0 -19 1 -19 19 -3 20 18 54
90 65 139 8 34 7 33 -24 -6z"/>
<path d="M932 7595 c-6 -14 -8 -25 -4 -25 12 0 32 23 32 37 0 22 -16 15 -28
-12z"/>
<path d="M1349 7217 c-18 -13 -11 -25 29 -46 18 -10 22 -9 22 4 0 20 -18 55
-28 55 -4 0 -14 -6 -23 -13z"/>
<path d="M1270 7163 c0 -73 22 -108 99 -160 2 -1 -2 -10 -9 -18 -11 -13 -8
-21 17 -48 17 -18 34 -42 38 -54 3 -13 11 -23 16 -23 5 0 9 -4 9 -10 0 -16 54
-93 99 -140 24 -25 56 -61 70 -81 15 -20 59 -65 99 -99 40 -34 72 -68 72 -76
0 -8 8 -18 18 -21 9 -4 57 -41 106 -82 49 -42 116 -97 150 -123 33 -26 72 -55
86 -66 14 -10 54 -39 90 -63 36 -24 70 -47 75 -52 6 -4 25 -18 44 -30 19 -12
44 -29 56 -37 23 -16 56 -37 90 -58 33 -20 207 -102 217 -102 5 0 45 -19 91
-41 118 -60 391 -147 498 -159 49 -6 117 -17 151 -25 135 -31 527 -54 596 -36
46 13 55 28 20 35 -13 3 -59 12 -103 21 -44 9 -102 23 -130 31 -27 7 -63 16
-80 20 -29 6 -160 46 -320 97 -134 43 -214 75 -350 142 -217 106 -434 205
-450 205 -7 0 -20 8 -27 18 -13 19 -122 92 -136 92 -4 0 -24 11 -43 24 -20 14
-48 28 -62 31 -14 4 -59 35 -99 69 -40 35 -84 67 -98 71 -14 4 -34 15 -45 24
-11 10 -31 24 -45 33 -46 28 -215 169 -301 251 -22 20 -43 37 -48 37 -18 0
-192 179 -205 212 -18 42 -41 63 -58 52 -7 -5 -21 -7 -31 -6 -10 2 -24 -2 -32
-8 -16 -13 -35 -5 -35 14 0 7 -12 23 -26 37 -33 31 -54 71 -54 104 0 14 -4 25
-10 25 -5 0 -10 -12 -10 -27z m220 -279 c0 -6 7 -14 15 -18 18 -7 20 -26 3
-26 -17 0 -68 65 -68 86 0 15 4 14 25 -6 14 -13 25 -29 25 -36z"/>
<path d="M3594 6585 c-18 -27 -13 -55 10 -55 8 0 23 -16 35 -35 13 -22 28 -35
41 -35 34 0 35 28 2 63 -16 18 -33 42 -36 54 -10 32 -34 36 -52 8z"/>
<path d="M3755 6440 c-9 -15 4 -30 26 -30 17 0 18 3 9 20 -12 22 -25 26 -35
10z"/>
</g>
</svg>
